{
  "accessors": [
    {
      "bufferView": 2,
      "componentType": 5126,
      "count": 61440,
      "max": [
        1.1606521606445312,
        1.1990835666656494,
        1.0939484834671021
      ],
      "min": [
        -1.1872897148132324,
        -1.1900502443313599,
        -1.1860004663467407
      ],
      "type": "VEC3"
    },
    {
      "bufferView": 2,
      "byteOffset": 737280,
      "componentType": 5126,
      "count": 61440,
      "max": [
        0.99977391958236694,
        0.99997055530548096,
        0.99996095895767212
      ],
      "min": [
        -0.99963527917861938,
        -0.99991166591644287,
        -0.99988484382629395
      ],
      "type": "VEC3"
    },
    {
      "bufferView": 1,
      "componentType": 5126,
      "count": 61440,
      "max": [
        1,
        0.47238200902938843
      ],
      "min": [
        0,
        0
      ],
      "type": "VEC2"
    },
    {
      "bufferView": 0,
      "componentType": 5125,
      "count": 61440,
      "max": [
        61439
      ],
      "min": [
        0
      ],
      "type": "SCALAR"
    }
  ],
  "asset": {
    "extras": {
      "author": "alina.cine (https://sketchfab.com/alina.cine)",
      "license": "CC-BY-4.0 (http://creativecommons.org/licenses/by/4.0/)",
      "source": "https://sketchfab.com/3d-models/procedural-dc112259c86140d8ba498816989c3f9f",
      "title": "Procedural"
    },
    "generator": "Sketchfab-9.54.0",
    "version": "2.0"
  },
  "bufferViews": [
    {
      "buffer": 0,
      "byteLength": 245760,
      "byteOffset": 0,
      "name": "floatBufferViews",
      "target": 34963
    },
    {
      "buffer": 0,
      "byteLength": 491520,
      "byteOffset": 245760,
      "byteStride": 8,
      "name": "floatBufferViews",
      "target": 34962
    },
    {
      "buffer": 0,
      "byteLength": 1474560,
      "byteOffset": 737280,
      "byteStride": 12,
      "name": "floatBufferViews",
      "target": 34962
    }
  ],
  "buffers": [
    {
      "byteLength": 2211840,
      "uri": "scene.bin"
    }
  ],
  "materials": [
    {
      "doubleSided": true,
      "emissiveFactor": [
        0,
        0,
        0
      ],
      "name": "Material",
      "pbrMetallicRoughness": {
        "baseColorFactor": [
          0.23278299999999999,
          0.0826789,
          0.80065600000000003,
          1
        ],
        "metallicFactor": 0.65248200000000001,
        "roughnessFactor": 0.16666700000000001
      }
    }
  ],
  "meshes": [
    {
      "name": "Icosphere_Material_0",
      "primitives": [
        {
          "attributes": {
            "NORMAL": 1,
            "POSITION": 0,
            "TEXCOORD_0": 2
          },
          "indices": 3,
          "material": 0,
          "mode": 4
        }
      ]
    }
  ],
  "nodes": [
    {
      "children": [
        1
      ],
      "name": "RootNode (gltf orientation matrix)",
      "rotation": [
        -0.70710678118654746,
        -0,
        -0,
        0.70710678118654757
      ]
    },
    {
      "children": [
        2
      ],
      "name": "RootNode (model correction matrix)"
    },
    {
      "children": [
        3
      ],
      "matrix": [
        1,
        0,
        0,
        0,
        0,
        0,
        1,
        0,
        0,
        -1,
        0,
        0,
        0,
        0,
        0,
        1
      ],
      "name": "08f11c07a6a444e491623267f7e0bfe6.fbx"
    },
    {
      "children": [
        4
      ],
      "name": "RootNode"
    },
    {
      "children": [
        5
      ],
      "matrix": [
        -17.350244522094727,
        -0,
        -0,
        -0,
        -0,
        2.8267136251540742e-06,
        17.350244522094496,
        -0,
        -0,
        -17.350244522094496,
        2.8267136251540742e-06,
        -0,
        0,
        0,
        0,
        1
      ],
      "name": "Icosphere"
    },
    {
      "mesh": 0,
      "name": "Icosphere_Material_0"
    }
  ],
  "scene": 0,
  "scenes": [
    {
      "name": "OSG_Scene",
      "nodes": [
        0
      ]
    }
  ]
}

